HIERARCHY
ROOT Hips
{
	OFFSET 0.000000 103.266502 0.000000
	CHANNELS 6 Xposition Yposition Zposition Xrotation Yrotation Zrotation 
	JOINT Spine
	{
		OFFSET -0.002400 12.777504 0.315300
		CHANNELS 3 Xrotation Yrotation Zrotation
		JOINT Spine1
		{
			OFFSET -0.002067 5.816869 0.032633
			CHANNELS 3 Xrotation Yrotation Zrotation
			JOINT Spine1_split
			{
				OFFSET -0.002067 5.816869 0.032633
				CHANNELS 3 Xrotation Yrotation Zrotation
				JOINT Spine2
				{
					OFFSET -0.002067 5.816869 0.032633
					CHANNELS 3 Xrotation Yrotation Zrotation
					JOINT Neck
					{
						OFFSET -0.003700 21.199493 -0.826900
						CHANNELS 3 Xrotation Yrotation Zrotation
						JOINT Head
						{
							OFFSET 0.000000 20.442200 4.834800
							CHANNELS 3 Xrotation Yrotation Zrotation
							JOINT HeadTop_End
							{
								OFFSET 0.000000 34.668396 4.968400
								CHANNELS 3 Xrotation Yrotation Zrotation
								End Site
								{
									OFFSET 0.000000 0.000000 0.000000
								}
							}
						}
					}
					JOINT LeftShoulder
					{
						OFFSET 3.288150 8.794197 -1.372250
						CHANNELS 3 Xrotation Yrotation Zrotation
						JOINT LeftShoulder_split
						{
							OFFSET 3.288150 8.794197 -1.372250
							CHANNELS 3 Xrotation Yrotation Zrotation
							JOINT LeftArm
							{
								OFFSET 11.953299 -2.279007 -0.146200
								CHANNELS 3 Xrotation Yrotation Zrotation
								JOINT LeftForeArm
								{
									OFFSET 18.448900 0.000000 0.000000
									CHANNELS 3 Xrotation Yrotation Zrotation
									JOINT LeftHand
									{
										OFFSET 29.527798 0.000000 0.000000
										CHANNELS 3 Xrotation Yrotation Zrotation
										JOINT LeftHandThumb1
										{
											OFFSET 10.739754 -2.369614 9.225399
											CHANNELS 3 Xrotation Yrotation Zrotation
											JOINT LeftHandThumb2
											{
												OFFSET 4.926170 -2.844131 2.844125
												CHANNELS 3 Xrotation Yrotation Zrotation
												JOINT LeftHandThumb3
												{
													OFFSET 4.614891 -2.664413 2.664409
													CHANNELS 3 Xrotation Yrotation Zrotation
													JOINT LeftHandThumb4
													{
														OFFSET 4.432465 -2.559082 2.559083
														CHANNELS 3 Xrotation Yrotation Zrotation
														End Site
														{
															OFFSET 0.000000 0.000000 0.000000
														}
													}
												}
											}
										}
										JOINT LeftHandIndex1
										{
											OFFSET 26.467674 0.187653 6.405298
											CHANNELS 3 Xrotation Yrotation Zrotation
											JOINT LeftHandIndex2
											{
												OFFSET 8.792900 0.000000 0.000000
												CHANNELS 3 Xrotation Yrotation Zrotation
												JOINT LeftHandIndex3
												{
													OFFSET 10.075203 0.000000 0.000000
													CHANNELS 3 Xrotation Yrotation Zrotation
													End Site
													{
														OFFSET 0.000000 0.000000 0.000000
													}
												}
											}
										}
										JOINT LeftHandMiddle1
										{
											OFFSET 25.764404 0.000000 0.000000
											CHANNELS 3 Xrotation Yrotation Zrotation
											JOINT LeftHandMiddle2
											{
												OFFSET 9.393974 0.000000 0.000000
												CHANNELS 3 Xrotation Yrotation Zrotation
												JOINT LeftHandMiddle3
												{
													OFFSET 10.771950 0.000000 0.000000
													CHANNELS 3 Xrotation Yrotation Zrotation
													End Site
													{
														OFFSET 0.000000 0.000000 0.000000
													}
												}
											}
										}
										JOINT LeftHandRing1
										{
											OFFSET 24.660927 0.144547 -6.225808
											CHANNELS 3 Xrotation Yrotation Zrotation
											JOINT LeftHandRing2
											{
												OFFSET 9.393799 0.000000 0.000000
												CHANNELS 3 Xrotation Yrotation Zrotation
												JOINT LeftHandRing3
												{
													OFFSET 9.928497 0.000000 0.000000
													CHANNELS 3 Xrotation Yrotation Zrotation
													End Site
													{
														OFFSET 0.000000 0.000000 0.000000
													}
												}
											}
										}
										JOINT LeftHandPinky1
										{
											OFFSET 23.655350 0.125290 -12.815412
											CHANNELS 3 Xrotation Yrotation Zrotation
											JOINT LeftHandPinky2
											{
												OFFSET 8.425102 0.000000 0.000000
												CHANNELS 3 Xrotation Yrotation Zrotation
												JOINT LeftHandPinky3
												{
													OFFSET 8.147003 0.000000 0.000000
													CHANNELS 3 Xrotation Yrotation Zrotation
													End Site
													{
														OFFSET 0.000000 0.000000 0.000000
													}
												}
											}
										}
									}
								}
							}
						}
					}
					JOINT RightShoulder
					{
						OFFSET -3.249400 8.794197 -1.372250
						CHANNELS 3 Xrotation Yrotation Zrotation
						JOINT RightShoulder_split
						{
							OFFSET -3.249400 8.794197 -1.372250
							CHANNELS 3 Xrotation Yrotation Zrotation
							JOINT RightArm
							{
								OFFSET -11.953299 -2.279007 -0.146200
								CHANNELS 3 Xrotation Yrotation Zrotation
								JOINT RightForeArm
								{
									OFFSET -18.448900 0.000000 0.000000
									CHANNELS 3 Xrotation Yrotation Zrotation
									JOINT RightHand
									{
										OFFSET -29.527802 0.000000 0.000000
										CHANNELS 3 Xrotation Yrotation Zrotation
										JOINT RightHandThumb1
										{
											OFFSET -10.739754 -2.369614 9.225399
											CHANNELS 3 Xrotation Yrotation Zrotation
											JOINT RightHandThumb2
											{
												OFFSET -4.926170 -2.844131 2.844125
												CHANNELS 3 Xrotation Yrotation Zrotation
												JOINT RightHandThumb3
												{
													OFFSET -4.614891 -2.664413 2.664409
													CHANNELS 3 Xrotation Yrotation Zrotation
													JOINT RightHandThumb4
													{
														OFFSET -4.432465 -2.559082 2.559083
														CHANNELS 3 Xrotation Yrotation Zrotation
														End Site
														{
															OFFSET 0.000000 0.000000 0.000000
														}
													}
												}
											}
										}
										JOINT RightHandIndex1
										{
											OFFSET -26.467674 0.187653 6.405298
											CHANNELS 3 Xrotation Yrotation Zrotation
											JOINT RightHandIndex2
											{
												OFFSET -8.792900 0.000000 0.000000
												CHANNELS 3 Xrotation Yrotation Zrotation
												JOINT RightHandIndex3
												{
													OFFSET -10.075203 0.000000 0.000000
													CHANNELS 3 Xrotation Yrotation Zrotation
													End Site
													{
														OFFSET 0.000000 0.000000 0.000000
													}
												}
											}
										}
										JOINT RightHandMiddle1
										{
											OFFSET -25.764404 0.000000 0.000000
											CHANNELS 3 Xrotation Yrotation Zrotation
											JOINT RightHandMiddle2
											{
												OFFSET -9.393974 0.000000 0.000000
												CHANNELS 3 Xrotation Yrotation Zrotation
												JOINT RightHandMiddle3
												{
													OFFSET -10.771950 0.000000 0.000000
													CHANNELS 3 Xrotation Yrotation Zrotation
													End Site
													{
														OFFSET 0.000000 0.000000 0.000000
													}
												}
											}
										}
										JOINT RightHandRing1
										{
											OFFSET -24.660927 0.144547 -6.225808
											CHANNELS 3 Xrotation Yrotation Zrotation
											JOINT RightHandRing2
											{
												OFFSET -9.393799 0.000000 0.000000
												CHANNELS 3 Xrotation Yrotation Zrotation
												JOINT RightHandRing3
												{
													OFFSET -9.928497 0.000000 0.000000
													CHANNELS 3 Xrotation Yrotation Zrotation
													End Site
													{
														OFFSET 0.000000 0.000000 0.000000
													}
												}
											}
										}
										JOINT RightHandPinky1
										{
											OFFSET -23.655350 0.125290 -12.815412
											CHANNELS 3 Xrotation Yrotation Zrotation
											JOINT RightHandPinky2
											{
												OFFSET -8.425102 0.000000 0.000000
												CHANNELS 3 Xrotation Yrotation Zrotation
												JOINT RightHandPinky3
												{
													OFFSET -8.147003 0.000000 0.000000
													CHANNELS 3 Xrotation Yrotation Zrotation
													End Site
													{
														OFFSET 0.000000 0.000000 0.000000
													}
												}
											}
										}
									}
								}
							}
						}
					}
				}
			}
		}
	}
	JOINT LeftUpLeg
	{
		OFFSET 11.394100 -6.187798 -0.413800
		CHANNELS 3 Xrotation Yrotation Zrotation
		JOINT LeftLeg
		{
			OFFSET 0.430247 -32.302673 3.732800
			CHANNELS 3 Xrotation Yrotation Zrotation
			JOINT LeftFoot
			{
				OFFSET -0.430247 -48.264931 -6.423300
				CHANNELS 3 Xrotation Yrotation Zrotation
				JOINT LeftToeBase
				{
					OFFSET 4.230900 -16.068199 23.438400
					CHANNELS 3 Xrotation Yrotation Zrotation
					JOINT LeftToe_End
					{
						OFFSET 4.510700 0.695400 19.974600
						CHANNELS 3 Xrotation Yrotation Zrotation
						End Site
						{
							OFFSET 0.000000 0.000000 0.000000
						}
					}
				}
			}
		}
	}
	JOINT RightUpLeg
	{
		OFFSET -11.333700 -6.187798 -0.413800
		CHANNELS 3 Xrotation Yrotation Zrotation
		JOINT RightLeg
		{
			OFFSET -0.430392 -32.302628 3.733000
			CHANNELS 3 Xrotation Yrotation Zrotation
			JOINT RightFoot
			{
				OFFSET 0.430392 -48.264973 -6.423500
				CHANNELS 3 Xrotation Yrotation Zrotation
				JOINT RightToeBase
				{
					OFFSET -4.230900 -16.068199 23.438400
					CHANNELS 3 Xrotation Yrotation Zrotation
					JOINT RightToe_End
					{
						OFFSET -4.510700 0.695400 19.974600
						CHANNELS 3 Xrotation Yrotation Zrotation
						End Site
						{
							OFFSET 0.000000 0.000000 0.000000
						}
					}
				}
			}
		}
	}
}
MOTION
Frames: 5
Frame Time: 0.016667
5.588958 98.857430 5.764760 -0.183849 19.048897 6.268697 0.081712 6.892752 10.737847 8.389053 6.747483 0.422353 0.000000 0.000000 0.000000 0.206961 6.614105 0.368028 -13.227445 -19.480645 1.743813 5.179461 -17.358822 -2.364422 -0.000000 0.000000 -0.000001 -0.154066 9.312164 20.132348 0.000000 0.000000 0.000000 -63.723377 6.157086 -31.462471 318.740804 -20.602975 373.295848 -53.062780 28.769730 30.735578 17.551621 -5.699193 -12.932302 10.850462 26.127709 8.644850 20.927003 51.115882 0.218770 0.000004 -0.000000 0.000001 13.980909 1.201544 -55.004381 0.370822 1.161717 -65.441873 0.000000 -0.000002 0.000000 7.504732 1.174482 -63.778510 1.807804 1.475673 -64.567937 0.000001 0.000002 -0.000001 8.574330 2.179147 -75.149006 -0.207673 1.009298 -57.855049 0.000001 0.000001 -0.000001 10.030088 13.637059 -84.750264 0.877096 0.062311 -64.595531 0.000001 -0.000003 -0.000003 5.429957 9.442455 5.676204 0.000000 0.000000 0.000000 15.856520 -66.495252 55.369905 -0.248998 19.228892 37.981569 72.680501 -1.056085 4.143540 15.788536 -2.734547 -17.205813 -2.832782 -29.366590 12.741425 1.549753 -21.136936 -0.203061 -0.000000 -0.000000 -0.000000 3.460512 -3.220953 22.317857 -2.139074 -2.479452 34.133836 -0.000000 -0.000000 0.000001 -1.981745 -5.708787 28.547056 0.291812 -5.115399 57.918495 0.000001 0.000001 -0.000002 -3.258547 -8.570301 35.335697 4.048566 -4.073915 65.874497 0.000001 -0.000002 0.000005 -5.950102 -17.426370 53.146822 10.727139 -2.565941 58.259444 -0.000001 -0.000000 -0.000001 -20.855742 -6.128860 -5.080278 20.502363 0.798211 -4.447871 0.023827 10.438683 0.567455 -1.917216 0.119898 -0.781990 0.000000 0.000001 -0.000000 -0.407573 -10.367081 -15.441167 24.638215 -22.436268 1.288187 -4.354419 -30.955944 22.396489 -6.991147 -0.014957 -0.120593 -0.000000 -0.000001 0.000000 
5.572151 98.688072 6.033154 0.424715 23.843308 5.476151 -1.151235 7.197169 10.824071 7.340190 7.401401 -0.347059 0.000000 0.000000 0.000000 0.687531 7.224075 -0.473161 -14.981684 -22.379381 3.474325 6.383157 -19.162912 -1.752119 -0.000001 -0.000000 -0.000001 -0.958329 11.589823 16.054739 0.000000 0.000000 0.000000 -66.492096 6.731939 -32.420910 309.931445 -20.341212 375.357171 -52.110129 22.279613 29.101831 17.551622 -5.699193 -12.932303 10.850462 26.127712 8.644845 20.927001 51.115882 0.218773 -0.000000 -0.000001 -0.000000 13.980912 1.201541 -55.004381 0.370818 1.161718 -65.441880 -0.000000 0.000003 -0.000002 7.504732 1.174480 -63.778510 1.807798 1.475671 -64.567937 0.000002 0.000000 0.000001 8.574333 2.179143 -75.148999 -0.207671 1.009297 -57.855042 -0.000001 -0.000001 0.000002 10.030087 13.637063 -84.750271 0.877096 0.062316 -64.595531 -0.000001 0.000002 -0.000004 5.228954 9.723376 6.084445 0.000000 0.000000 0.000000 10.668959 -68.209411 51.667581 -0.500536 18.866878 38.212361 79.163586 0.444240 3.903845 15.788522 -2.734508 -17.205807 -2.817500 -29.403701 12.657770 1.442647 -20.888477 -0.184269 -0.000000 -0.000001 -0.000001 3.434957 -3.235370 22.125532 -2.139757 -2.479370 33.905080 -0.000000 0.000000 -0.000001 -1.981958 -5.708334 28.331290 0.291633 -5.115308 57.471609 0.000001 0.000001 -0.000001 -3.259475 -8.570099 34.996506 4.048364 -4.073833 65.399294 0.000000 -0.000000 0.000001 -6.000672 -17.333605 52.703877 10.727033 -2.565884 57.922893 -0.000000 0.000001 0.000002 -22.982977 -8.966897 -5.691789 21.341097 -0.194831 -4.678293 0.286764 9.640774 0.697366 -1.888312 0.117178 -0.774289 0.000000 0.000001 -0.000000 0.640542 -15.010850 -14.311788 23.207301 -21.772212 0.938454 -5.162563 -29.548618 22.412523 -7.886824 -0.013862 -0.038125 -0.000000 0.000001 -0.000000 
5.549771 98.507210 6.253800 1.106840 28.000618 4.729211 -2.194567 7.525492 10.563921 6.409502 8.037289 -1.007984 0.000000 0.000000 0.000000 1.207255 7.779493 -1.226569 -16.665344 -24.736645 4.961171 7.293002 -20.429629 -1.343611 -0.000001 0.000000 -0.000001 -1.386121 13.153987 11.553613 0.000000 0.000000 0.000000 -68.111425 6.494239 -33.152417 305.017233 -21.210142 374.224125 -51.626251 18.333245 27.120518 17.551621 -5.699194 -12.932304 10.850458 26.127712 8.644847 20.927001 51.115879 0.218774 -0.000003 -0.000001 -0.000000 13.980908 1.201543 -55.004381 0.370817 1.161717 -65.441873 0.000001 0.000001 -0.000001 7.504731 1.174479 -63.778510 1.807797 1.475676 -64.567937 -0.000003 -0.000000 -0.000001 8.574330 2.179142 -75.148999 -0.207679 1.009298 -57.855049 0.000002 0.000001 0.000001 10.030088 13.637063 -84.750264 0.877092 0.062313 -64.595531 -0.000000 -0.000000 -0.000002 5.052229 10.207457 6.320875 0.000000 0.000000 0.000000 6.135802 -67.294541 48.041184 0.327626 18.396966 37.774552 83.008566 -0.368259 3.065854 15.788541 -2.734528 -17.205819 -2.808272 -29.432641 12.569107 1.336070 -20.641595 -0.165101 -0.000001 -0.000000 0.000000 3.396519 -3.255154 21.917860 -2.140525 -2.479425 33.642216 -0.000000 0.000000 0.000001 -1.982216 -5.708094 28.088035 0.291432 -5.115144 56.979139 -0.000000 0.000000 -0.000000 -3.260370 -8.569923 34.620084 4.048119 -4.073722 64.869121 0.000000 -0.000001 0.000000 -6.047911 -17.233582 52.206455 10.726885 -2.565855 57.544822 -0.000000 -0.000000 0.000003 -25.024754 -11.645972 -6.470960 22.094866 -0.724456 -4.855901 0.537308 8.889530 0.707156 -1.859385 0.114636 -0.766586 0.000000 -0.000001 -0.000000 1.476067 -19.854607 -13.425890 21.853757 -20.220369 0.669444 -6.215806 -27.948671 22.087580 -8.763776 -0.012908 0.039916 -0.000000 0.000002 0.000000 
5.513665 98.347076 6.412986 1.762821 30.952307 4.157400 -3.102766 7.870428 10.062579 5.554686 8.658322 -1.589353 0.000000 0.000000 0.000000 1.738244 8.299231 -1.912929 -18.260203 -26.743039 6.305351 8.037606 -21.371749 -1.064210 -0.000000 -0.000000 0.000000 -1.577761 14.389631 6.973796 0.000000 0.000000 0.000000 -69.478016 6.137845 -33.977968 302.849468 -21.535472 372.111629 -50.465474 13.830774 25.019680 17.551622 -5.699193 -12.932303 10.850462 26.127712 8.644845 20.927001 51.115886 0.218774 -0.000002 -0.000001 -0.000003 13.980911 1.201545 -55.004381 0.370823 1.161717 -65.441880 0.000000 -0.000001 0.000000 7.504730 1.174476 -63.778517 1.807803 1.475674 -64.567937 -0.000001 0.000001 0.000000 8.574333 2.179143 -75.148999 -0.207672 1.009297 -57.855042 -0.000000 -0.000000 -0.000001 10.030088 13.637058 -84.750264 0.877094 0.062313 -64.595531 -0.000003 -0.000001 -0.000005 4.894000 10.841097 6.313583 0.000000 0.000000 0.000000 4.878261 -64.300890 47.139104 1.435486 17.723760 37.243533 83.415816 -3.115089 2.073291 15.788530 -2.734528 -17.205817 -2.805485 -29.452773 12.475392 1.229961 -20.397981 -0.145657 -0.000001 -0.000003 -0.000000 3.344304 -3.280462 21.694668 -2.141382 -2.479311 33.343901 -0.000000 -0.000001 -0.000001 -1.982577 -5.707900 27.816406 0.291212 -5.115010 56.439988 -0.000001 0.000000 -0.000000 -3.261276 -8.569708 34.205553 4.047797 -4.073570 64.282428 -0.000000 0.000001 -0.000001 -6.091017 -17.126344 51.652909 10.726716 -2.565703 57.123830 0.000001 0.000000 -0.000001 -26.776319 -14.139750 -7.384902 22.605701 -1.424558 -5.024152 0.713253 9.358435 0.626446 -1.830465 0.112110 -0.758882 0.000000 -0.000001 -0.000000 2.034730 -23.249614 -12.712097 20.877738 -19.183650 0.490040 -7.040762 -26.868827 21.800751 -9.230060 -0.012072 0.080778 0.000000 -0.000001 0.000000 
5.476651 98.185844 6.561728 2.459794 33.724513 3.569906 -3.792148 8.255079 9.146318 4.795341 9.253632 -2.038448 0.000000 0.000000 0.000000 2.249932 8.768044 -2.484067 -19.555895 -28.328114 7.530704 8.827449 -21.920684 -0.892908 -0.000000 0.000001 0.000000 -1.621774 15.306804 2.620804 0.000000 0.000000 0.000000 -71.180133 6.283637 -35.271066 302.291441 -23.005235 366.646877 -49.489789 11.483591 23.764544 17.551621 -5.699196 -12.932305 10.850460 26.127712 8.644843 20.927005 51.115882 0.218764 0.000000 -0.000000 -0.000003 13.980909 1.201537 -55.004377 0.370819 1.161720 -65.441880 0.000001 -0.000001 -0.000000 7.504730 1.174477 -63.778510 1.807803 1.475667 -64.567937 -0.000004 0.000000 -0.000001 8.574330 2.179139 -75.149006 -0.207677 1.009297 -57.855042 0.000001 0.000000 0.000001 10.030087 13.637056 -84.750271 0.877096 0.062315 -64.595531 -0.000000 -0.000000 -0.000002 4.729928 11.739363 5.847127 0.000000 0.000000 0.000000 6.391998 -59.059157 48.674250 2.395701 16.620062 37.009100 78.741686 -8.291087 0.057903 15.788542 -2.734542 -17.205829 -2.809735 -29.463298 12.376703 1.124385 -20.159442 -0.125825 0.000001 -0.000001 0.000001 3.277246 -3.311244 21.455851 -2.142291 -2.479247 33.008884 0.000001 0.000000 0.000001 -1.982761 -5.707563 27.515554 0.290991 -5.114835 55.853203 0.000001 -0.000000 0.000000 -3.261466 -8.569487 33.751974 4.047556 -4.073500 63.637590 0.000001 -0.000000 -0.000000 -6.128995 -17.011947 51.041662 10.726497 -2.565544 56.658738 -0.000001 -0.000000 -0.000001 -28.483016 -16.371571 -8.301407 23.145025 -1.132383 -5.092638 0.900520 8.752423 0.439186 -1.801562 0.109679 -0.751194 0.000000 0.000002 0.000000 2.576708 -26.442890 -11.974570 19.972083 -18.194142 0.328024 -7.808879 -25.861809 21.531475 -9.655589 -0.011265 0.118236 -0.000001 -0.000000 -0.000000 
